<?xml version="1.0" standalone="no"?>
<!DOCTYPE svg PUBLIC "-//W3C//DTD SVG 20010904//EN"
 "http://www.w3.org/TR/2001/REC-SVG-20010904/DTD/svg10.dtd">
<svg version="1.0" xmlns="http://www.w3.org/2000/svg"
 width="2000.000000pt" height="1991.000000pt" viewBox="0 0 2000.000000 1991.000000"
 preserveAspectRatio="xMidYMid meet">

<g transform="translate(0.000000,1991.000000) scale(0.100000,-0.100000)"
fill="#000000" stroke="none">
<path d="M9660 19903 c-2164 -77 -4199 -827 -5890 -2171 -1249 -993 -2262
-2301 -2905 -3752 -528 -1191 -800 -2367 -856 -3701 -29 -681 44 -1541 192
-2271 445 -2201 1618 -4184 3339 -5644 1072 -910 2344 -1590 3702 -1979 1884
-541 3936 -509 5793 88 526 169 923 331 1415 577 1957 976 3542 2569 4505
4525 553 1125 880 2294 989 3540 64 731 52 1388 -39 2105 -136 1063 -460 2130
-945 3115 -672 1363 -1647 2553 -2860 3492 -1525 1179 -3352 1888 -5280 2048
-358 29 -818 41 -1160 28z m690 -7724 c698 -64 1314 -433 1703 -1019 181 -273
312 -624 358 -960 20 -140 17 -469 -5 -610 -76 -499 -288 -925 -637 -1280
-442 -450 -1084 -705 -1703 -676 -337 16 -623 88 -914 231 -467 230 -819 583
-1047 1050 -111 227 -173 426 -211 675 -25 159 -25 483 -1 639 78 500 291 928
638 1281 351 357 839 599 1329 659 47 6 101 12 120 14 79 8 262 6 370 -4z
m-2726 -3496 c34 -73 130 -239 189 -328 410 -614 1052 -1047 1771 -1195 335
-68 675 -75 1021 -20 616 98 1197 414 1624 883 162 179 334 428 432 630 l33
67 3334 0 3333 0 -6 -47 c-103 -738 -300 -1477 -580 -2183 -576 -1450 -1517
-2746 -2734 -3763 -788 -659 -1709 -1199 -2679 -1571 -680 -261 -1433 -450
-2152 -540 -482 -61 -843 -80 -1360 -73 -620 9 -1123 60 -1689 173 -1685 334
-3224 1106 -4501 2258 -1398 1262 -2396 2926 -2844 4741 -72 293 -159 747
-182 943 l-7 62 3490 0 3489 0 18 -37z"/>
</g>
</svg>
